<svg xmlns="http://www.w3.org/2000/svg" width="200.785" height="209.157" viewBox="0 0 209.785 20.157"><path id="Path_168046" data-name="Path 168046" d="M10440.949,2925.157v-20.139h3.836v20.139Zm-36.37,0-8-20.139h4.312l5.8,15.188,5.825-15.187h4.312l-8,20.139Zm-32.622,0-1.55-3.971h-8.747l-1.551,3.971h-4.194l8-20.139h4.244l8,20.139Zm-9.1-7.484h6.345l-3.187-8.328Zm-33.067,7.482-1.553-3.971h-8.745l-1.554,3.973h-4.193l8-20.139h4.244l8,20.139Zm-9.1-7.482h6.349l-3.187-8.331Zm-34.253,7.484-4.576-7.392h-2.85v7.392h-3.835v-20.139h8.545c.153-.012.306-.017.458-.017a6.195,6.195,0,0,1,6.191,6.388,5.827,5.827,0,0,1-4.459,5.958l5,7.811Zm-7.431-10.88,4.389,0c.071.007.147.01.218.01a2.844,2.844,0,0,0,2.841-2.889v-.015a2.84,2.84,0,0,0-2.841-2.889c-.07,0-.146,0-.218.008l-.036,0H10279Zm-44,10.88v-20.139h8.543c.141-.01.283-.015.424-.015a6.388,6.388,0,0,1-.021,12.775c-.133,0-.269-.005-.4-.013h-4.711v7.392Zm3.832-10.88,4.389,0a1.959,1.959,0,0,0,.207.01,2.818,2.818,0,0,0,2.814-2.886v-.025a2.813,2.813,0,0,0-2.814-2.881c-.069,0-.138,0-.207.008l-.037,0h-4.352Z" transform="translate(-10235 -2905)" fill="#4b8aeb"></path></svg>